# xmcd
#
# Track frame offsets:
#	150
#	70186
#	113909
#	163074
#	181950
#	205793
#
# Disc length: 3192 seconds
#
# Revision: 1
# Processed by: cddbd v1.5.2PL0 Copyright (c) Steve Scherf et al.
# Submitted via: audiograbber 1.83.01
#
DISCID=4e0c7606
DTITLE=Grateful Dead - 69-06-14 Monterey Peninsula College, Monterey CA
DYEAR=1900
DGENRE=
TTITLE0=Dark Star
TTITLE1=St Stephen
TTITLE2=The Eleven
TTITLE3=Turn On Your Lovelight
TTITLE4=Drums
TTITLE5=Turn on Your Lovelight
EXTD=
EXTT0=
EXTT1=
EXTT2=
EXTT3=
EXTT4=
EXTT5=
PLAYORDER=
